<svg width="46" height="46" viewBox="0 0 46 46" fill="none" xmlns="http://www.w3.org/2000/svg">
<path d="M34.5 36.1483H33.0433C31.51 36.1483 30.0533 36.7425 28.98 37.8158L25.7025 41.0551C24.2075 42.5309 21.7733 42.5309 20.2783 41.0551L17.0008 37.8158C15.9275 36.7425 14.4517 36.1483 12.9375 36.1483H11.5C8.31833 36.1483 5.75 33.5992 5.75 30.4559V9.54498C5.75 6.40165 8.31833 3.85254 11.5 3.85254H34.5C37.6817 3.85254 40.25 6.40165 40.25 9.54498V30.4559C40.25 33.58 37.6817 36.1483 34.5 36.1483Z" stroke="#161616" stroke-width="2" stroke-miterlimit="10" stroke-linecap="round" stroke-linejoin="round"/>
<path d="M13.4166 17.5567C13.4166 15.7742 14.8733 14.3174 16.6558 14.3174C18.4383 14.3174 19.895 15.7742 19.895 17.5567C19.895 21.16 14.7774 21.5433 13.6466 24.9742C13.4166 25.6833 14.0108 26.3925 14.7583 26.3925H19.895" stroke="#161616" stroke-width="2" stroke-linecap="round" stroke-linejoin="round"/>
<path d="M30.7432 26.3733V15.4292C30.7432 14.9309 30.4174 14.49 29.9382 14.3558C29.4591 14.2216 28.9416 14.4133 28.6733 14.835C27.2933 17.0583 25.7983 19.5883 24.4949 21.8116C24.2841 22.1758 24.2841 22.655 24.4949 23.0192C24.7058 23.3833 25.1083 23.6132 25.5491 23.6132H32.5833" stroke="#161616" stroke-width="2" stroke-linecap="round" stroke-linejoin="round"/>
</svg>
