<svg width="36" height="36" viewBox="0 0 36 36" fill="none" xmlns="http://www.w3.org/2000/svg">
<path d="M27 28.2901H25.86C24.66 28.2901 23.52 28.7551 22.68 29.5951L20.115 32.1302C18.945 33.2852 17.04 33.2852 15.87 32.1302L13.305 29.5951C12.465 28.7551 11.31 28.2901 10.125 28.2901H9C6.51 28.2901 4.5 26.2951 4.5 23.8351V7.47009C4.5 5.01009 6.51 3.01514 9 3.01514H27C29.49 3.01514 31.5 5.01009 31.5 7.47009V23.8351C31.5 26.2801 29.49 28.2901 27 28.2901Z" stroke="white" stroke-width="2" stroke-miterlimit="10" stroke-linecap="round" stroke-linejoin="round"/>
<path d="M10.5 13.7402C10.5 12.3452 11.64 11.2051 13.035 11.2051C14.43 11.2051 15.57 12.3452 15.57 13.7402C15.57 16.5602 11.565 16.8602 10.68 19.5452C10.5 20.1002 10.965 20.6552 11.55 20.6552H15.57" stroke="white" stroke-width="2" stroke-linecap="round" stroke-linejoin="round"/>
<path d="M24.06 20.64V12.0751C24.06 11.6851 23.805 11.34 23.43 11.235C23.055 11.13 22.65 11.28 22.44 11.61C21.36 13.35 20.19 15.33 19.17 17.07C19.005 17.355 19.005 17.73 19.17 18.015C19.335 18.3 19.65 18.48 19.995 18.48H25.5" stroke="white" stroke-width="2" stroke-linecap="round" stroke-linejoin="round"/>
</svg>
