<svg width="46" height="46" viewBox="0 0 46 46" fill="none" xmlns="http://www.w3.org/2000/svg">
<path d="M23 33.5416H23.0191M15.7166 42.1666H30.2833C32.4302 42.1666 33.5036 42.1666 34.3236 41.7488C35.0449 41.3813 35.6313 40.7948 35.9988 40.0736C36.4166 39.2536 36.4166 38.1801 36.4166 36.0333V9.96659C36.4166 7.81972 36.4166 6.74628 35.9988 5.92629C35.6313 5.205 35.0449 4.61857 34.3236 4.25106C33.5036 3.83325 32.4302 3.83325 30.2833 3.83325H15.7166C13.5698 3.83325 12.4963 3.83325 11.6763 4.25106C10.9551 4.61857 10.3686 5.205 10.0011 5.92629C9.58331 6.74628 9.58331 7.81972 9.58331 9.96659V36.0333C9.58331 38.1801 9.58331 39.2536 10.0011 40.0736C10.3686 40.7948 10.9551 41.3813 11.6763 41.7488C12.4963 42.1666 13.5698 42.1666 15.7166 42.1666ZM23.9583 33.5416C23.9583 34.0709 23.5293 34.4999 23 34.4999C22.4707 34.4999 22.0416 34.0709 22.0416 33.5416C22.0416 33.0123 22.4707 32.5833 23 32.5833C23.5293 32.5833 23.9583 33.0123 23.9583 33.5416Z" stroke="#161616" stroke-width="2" stroke-linecap="round" stroke-linejoin="round"/>
</svg>
