<svg width="36" height="36" viewBox="0 0 36 36" fill="none" xmlns="http://www.w3.org/2000/svg">
<path d="M18 26.25H18.015M12.3 33H23.7C25.3802 33 26.2202 33 26.862 32.673C27.4265 32.3854 27.8854 31.9265 28.173 31.362C28.5 30.7202 28.5 29.8802 28.5 28.2V7.8C28.5 6.11984 28.5 5.27976 28.173 4.63803C27.8854 4.07354 27.4265 3.6146 26.862 3.32698C26.2202 3 25.3802 3 23.7 3H12.3C10.6198 3 9.77976 3 9.13803 3.32698C8.57354 3.6146 8.1146 4.07354 7.82698 4.63803C7.5 5.27976 7.5 6.11984 7.5 7.8V28.2C7.5 29.8802 7.5 30.7202 7.82698 31.362C8.1146 31.9265 8.57354 32.3854 9.13803 32.673C9.77976 33 10.6198 33 12.3 33ZM18.75 26.25C18.75 26.6642 18.4142 27 18 27C17.5858 27 17.25 26.6642 17.25 26.25C17.25 25.8358 17.5858 25.5 18 25.5C18.4142 25.5 18.75 25.8358 18.75 26.25Z" stroke="white" stroke-width="2" stroke-linecap="round" stroke-linejoin="round"/>
</svg>
