<svg width="18" height="18" viewBox="0 0 18 18" fill="none" xmlns="http://www.w3.org/2000/svg">
<path d="M12.75 2.25H5.25C4.45435 2.25 3.69129 2.56607 3.12868 3.12868C2.56607 3.69129 2.25 4.45435 2.25 5.25V12.75C2.25 13.5456 2.56607 14.3087 3.12868 14.8713C3.69129 15.4339 4.45435 15.75 5.25 15.75H12.75C13.5456 15.75 14.3087 15.4339 14.8713 14.8713C15.4339 14.3087 15.75 13.5456 15.75 12.75V5.25C15.75 4.45435 15.4339 3.69129 14.8713 3.12868C14.3087 2.56607 13.5456 2.25 12.75 2.25Z" stroke="#A80936" stroke-width="1.5" stroke-linejoin="round"/>
<path d="M9 12C9.79565 12 10.5587 11.6839 11.1213 11.1213C11.6839 10.5587 12 9.79565 12 9C12 8.20435 11.6839 7.44129 11.1213 6.87868C10.5587 6.31607 9.79565 6 9 6C8.20435 6 7.44129 6.31607 6.87868 6.87868C6.31607 7.44129 6 8.20435 6 9C6 9.79565 6.31607 10.5587 6.87868 11.1213C7.44129 11.6839 8.20435 12 9 12V12Z" stroke="#A80936" stroke-width="1.5" stroke-linejoin="round"/>
<path d="M13.125 5.625C13.3239 5.625 13.5147 5.54598 13.6553 5.40533C13.796 5.26468 13.875 5.07391 13.875 4.875C13.875 4.67609 13.796 4.48532 13.6553 4.34467C13.5147 4.20402 13.3239 4.125 13.125 4.125C12.9261 4.125 12.7353 4.20402 12.5947 4.34467C12.454 4.48532 12.375 4.67609 12.375 4.875C12.375 5.07391 12.454 5.26468 12.5947 5.40533C12.7353 5.54598 12.9261 5.625 13.125 5.625Z" fill="#A80936"/>
</svg>
