<svg width="46" height="46" viewBox="0 0 46 46" fill="none" xmlns="http://www.w3.org/2000/svg">
<path d="M17.6582 27.7916C18.2566 28.9311 19.4514 29.7083 20.8278 29.7083H24.9167C27.0337 29.7083 28.75 27.992 28.75 25.875C28.75 23.7579 27.0337 22.0416 24.9167 22.0416H21.0833C18.9662 22.0416 17.25 20.3254 17.25 18.2083C17.25 16.0912 18.9662 14.375 21.0833 14.375H25.1722C26.5486 14.375 27.7434 15.1522 28.3418 16.2916M23 11.5V14.375M23 29.7083V32.5833M38.3333 23C38.3333 32.4078 28.0716 39.2502 24.3378 41.4285C23.9135 41.676 23.7013 41.7998 23.4019 41.864C23.1695 41.9138 22.8305 41.9138 22.5981 41.864C22.2987 41.7998 22.0865 41.676 21.6622 41.4285C17.9284 39.2502 7.66666 32.4078 7.66666 23V13.8337C7.66666 12.3013 7.66666 11.5351 7.91728 10.8765C8.13868 10.2946 8.49846 9.77549 8.9655 9.36389C9.49419 8.89796 10.2116 8.62893 11.6464 8.09087L21.9232 4.23708C22.3217 4.08766 22.5209 4.01294 22.7259 3.98333C22.9077 3.95706 23.0923 3.95706 23.2741 3.98333C23.4791 4.01294 23.6783 4.08766 24.0768 4.23708L34.3535 8.09087C35.7884 8.62893 36.5058 8.89796 37.0345 9.36389C37.5015 9.77549 37.8613 10.2946 38.0827 10.8765C38.3333 11.5351 38.3333 12.3013 38.3333 13.8337V23Z" stroke="#161616" stroke-width="2" stroke-linecap="round" stroke-linejoin="round"/>
</svg>
